<svg width="601" height="453" viewBox="0 0 601 453" fill="none" xmlns="http://www.w3.org/2000/svg">
<rect x="601" y="51" width="2" height="601" transform="rotate(90 601 51)" fill="url(#paint0_linear_8_231)"/>
<rect x="601" width="2" height="601" transform="rotate(90 601 0)" fill="url(#paint1_linear_8_231)"/>
<rect x="601" y="101" width="2" height="601" transform="rotate(90 601 101)" fill="url(#paint2_linear_8_231)"/>
<rect x="601" y="151" width="2" height="601" transform="rotate(90 601 151)" fill="url(#paint3_linear_8_231)"/>
<rect x="601" y="201" width="2" height="601" transform="rotate(90 601 201)" fill="url(#paint4_linear_8_231)"/>
<rect x="601" y="251" width="2" height="601" transform="rotate(90 601 251)" fill="url(#paint5_linear_8_231)"/>
<rect x="601" y="301" width="2" height="601" transform="rotate(90 601 301)" fill="url(#paint6_linear_8_231)"/>
<rect x="601" y="351" width="2" height="601" transform="rotate(90 601 351)" fill="url(#paint7_linear_8_231)"/>
<rect x="601" y="401" width="2" height="601" transform="rotate(90 601 401)" fill="url(#paint8_linear_8_231)"/>
<rect x="601" y="451" width="2" height="601" transform="rotate(90 601 451)" fill="url(#paint9_linear_8_231)"/>
<defs>
<linearGradient id="paint0_linear_8_231" x1="602" y1="51" x2="602" y2="652" gradientUnits="userSpaceOnUse">
<stop stop-color="white" stop-opacity="0"/>
<stop offset="0.479167" stop-color="white" stop-opacity="0.02"/>
<stop offset="0.994792" stop-color="white" stop-opacity="0"/>
</linearGradient>
<linearGradient id="paint1_linear_8_231" x1="602" y1="0" x2="602" y2="601" gradientUnits="userSpaceOnUse">
<stop stop-color="white" stop-opacity="0"/>
<stop offset="0.479167" stop-color="white" stop-opacity="0.02"/>
<stop offset="0.994792" stop-color="white" stop-opacity="0"/>
</linearGradient>
<linearGradient id="paint2_linear_8_231" x1="602" y1="101" x2="602" y2="702" gradientUnits="userSpaceOnUse">
<stop stop-color="white" stop-opacity="0"/>
<stop offset="0.479167" stop-color="white" stop-opacity="0.02"/>
<stop offset="0.994792" stop-color="white" stop-opacity="0"/>
</linearGradient>
<linearGradient id="paint3_linear_8_231" x1="602" y1="151" x2="602" y2="752" gradientUnits="userSpaceOnUse">
<stop stop-color="white" stop-opacity="0"/>
<stop offset="0.479167" stop-color="white" stop-opacity="0.02"/>
<stop offset="0.994792" stop-color="white" stop-opacity="0"/>
</linearGradient>
<linearGradient id="paint4_linear_8_231" x1="602" y1="201" x2="602" y2="802" gradientUnits="userSpaceOnUse">
<stop stop-color="white" stop-opacity="0"/>
<stop offset="0.479167" stop-color="white" stop-opacity="0.02"/>
<stop offset="0.994792" stop-color="white" stop-opacity="0"/>
</linearGradient>
<linearGradient id="paint5_linear_8_231" x1="602" y1="251" x2="602" y2="852" gradientUnits="userSpaceOnUse">
<stop stop-color="white" stop-opacity="0"/>
<stop offset="0.479167" stop-color="white" stop-opacity="0.02"/>
<stop offset="0.994792" stop-color="white" stop-opacity="0"/>
</linearGradient>
<linearGradient id="paint6_linear_8_231" x1="602" y1="301" x2="602" y2="902" gradientUnits="userSpaceOnUse">
<stop stop-color="white" stop-opacity="0"/>
<stop offset="0.479167" stop-color="white" stop-opacity="0.02"/>
<stop offset="0.994792" stop-color="white" stop-opacity="0"/>
</linearGradient>
<linearGradient id="paint7_linear_8_231" x1="602" y1="351" x2="602" y2="952" gradientUnits="userSpaceOnUse">
<stop stop-color="white" stop-opacity="0"/>
<stop offset="0.479167" stop-color="white" stop-opacity="0.02"/>
<stop offset="0.994792" stop-color="white" stop-opacity="0"/>
</linearGradient>
<linearGradient id="paint8_linear_8_231" x1="602" y1="401" x2="602" y2="1002" gradientUnits="userSpaceOnUse">
<stop stop-color="white" stop-opacity="0"/>
<stop offset="0.479167" stop-color="white" stop-opacity="0.02"/>
<stop offset="0.994792" stop-color="white" stop-opacity="0"/>
</linearGradient>
<linearGradient id="paint9_linear_8_231" x1="602" y1="451" x2="602" y2="1052" gradientUnits="userSpaceOnUse">
<stop stop-color="white" stop-opacity="0"/>
<stop offset="0.479167" stop-color="white" stop-opacity="0.02"/>
<stop offset="0.994792" stop-color="white" stop-opacity="0"/>
</linearGradient>
</defs>
</svg>
